<svg id="visual" viewBox="0 0 960 300" width="960" height="300" xmlns="http://www.w3.org/2000/svg" xmlns:xlink="http://www.w3.org/1999/xlink" version="1.1"><rect x="0" y="0" width="960" height="300" fill="#ffffff"></rect><path d="M0 238L22.8 236.5C45.7 235 91.3 232 137 230.7C182.7 229.3 228.3 229.7 274 229.7C319.7 229.7 365.3 229.3 411.2 224.5C457 219.7 503 210.3 548.8 206.8C594.7 203.3 640.3 205.7 686 207.8C731.7 210 777.3 212 823 214.7C868.7 217.3 914.3 220.7 937.2 222.3L960 224L960 301L937.2 301C914.3 301 868.7 301 823 301C777.3 301 731.7 301 686 301C640.3 301 594.7 301 548.8 301C503 301 457 301 411.2 301C365.3 301 319.7 301 274 301C228.3 301 182.7 301 137 301C91.3 301 45.7 301 22.8 301L0 301Z" fill="#446b87"></path><path d="M0 204L22.8 206.7C45.7 209.3 91.3 214.7 137 217.8C182.7 221 228.3 222 274 226.8C319.7 231.7 365.3 240.3 411.2 244.5C457 248.7 503 248.3 548.8 247.7C594.7 247 640.3 246 686 241.2C731.7 236.3 777.3 227.7 823 222C868.7 216.3 914.3 213.7 937.2 212.3L960 211L960 301L937.2 301C914.3 301 868.7 301 823 301C777.3 301 731.7 301 686 301C640.3 301 594.7 301 548.8 301C503 301 457 301 411.2 301C365.3 301 319.7 301 274 301C228.3 301 182.7 301 137 301C91.3 301 45.7 301 22.8 301L0 301Z" fill="#34597b"></path><path d="M0 255L22.8 251C45.7 247 91.3 239 137 235.8C182.7 232.7 228.3 234.3 274 234.7C319.7 235 365.3 234 411.2 233.2C457 232.3 503 231.7 548.8 230.5C594.7 229.3 640.3 227.7 686 227.7C731.7 227.7 777.3 229.3 823 235.2C868.7 241 914.3 251 937.2 256L960 261L960 301L937.2 301C914.3 301 868.7 301 823 301C777.3 301 731.7 301 686 301C640.3 301 594.7 301 548.8 301C503 301 457 301 411.2 301C365.3 301 319.7 301 274 301C228.3 301 182.7 301 137 301C91.3 301 45.7 301 22.8 301L0 301Z" fill="#26486f"></path><path d="M0 261L22.8 260.7C45.7 260.3 91.3 259.7 137 258.8C182.7 258 228.3 257 274 255.7C319.7 254.3 365.3 252.7 411.2 254.8C457 257 503 263 548.8 262.5C594.7 262 640.3 255 686 254.2C731.7 253.3 777.3 258.7 823 259.5C868.7 260.3 914.3 256.7 937.2 254.8L960 253L960 301L937.2 301C914.3 301 868.7 301 823 301C777.3 301 731.7 301 686 301C640.3 301 594.7 301 548.8 301C503 301 457 301 411.2 301C365.3 301 319.7 301 274 301C228.3 301 182.7 301 137 301C91.3 301 45.7 301 22.8 301L0 301Z" fill="#1c3662"></path><path d="M0 272L22.8 270.8C45.7 269.7 91.3 267.3 137 267.7C182.7 268 228.3 271 274 274.5C319.7 278 365.3 282 411.2 283.2C457 284.3 503 282.7 548.8 279.5C594.7 276.3 640.3 271.7 686 271.8C731.7 272 777.3 277 823 279.3C868.7 281.7 914.3 281.3 937.2 281.2L960 281L960 301L937.2 301C914.3 301 868.7 301 823 301C777.3 301 731.7 301 686 301C640.3 301 594.7 301 548.8 301C503 301 457 301 411.2 301C365.3 301 319.7 301 274 301C228.3 301 182.7 301 137 301C91.3 301 45.7 301 22.8 301L0 301Z" fill="#172554"></path></svg>